<svg width="26" height="34" viewBox="0 0 26 34" fill="none" xmlns="http://www.w3.org/2000/svg">
<g clip-path="url(#clip0_8_152)">
<path d="M0.947998 6.36121C0.947998 2.84801 3.85186 0 7.43398 0H18.5631C22.1452 0 25.049 2.84801 25.049 6.36121C25.049 8.5858 23.8847 10.5437 22.1211 11.6807C23.8847 12.8177 25.049 14.7755 25.049 17.0001C25.049 20.5134 22.1452 23.3614 18.5631 23.3614H18.4222C16.7429 23.3614 15.2127 22.7354 14.0608 21.7085V27.5697C14.0608 31.1297 11.081 34 7.46892 34C3.89575 34 0.947998 31.1607 0.947998 27.6387C0.947998 25.4143 2.11221 23.4565 3.87565 22.3195C2.11221 21.1825 0.947998 19.2246 0.947998 17.0001C0.947998 14.7755 2.11231 12.8177 3.87588 11.6807C2.11231 10.5437 0.947998 8.5858 0.947998 6.36121ZM11.9362 12.7226H7.43398C5.0252 12.7226 3.07254 14.6377 3.07254 17.0001C3.07254 19.3534 5.01015 21.2629 7.40609 21.2776C7.41536 21.2776 7.42464 21.2776 7.43398 21.2776H11.9362V12.7226ZM14.0608 17.0001C14.0608 19.3625 16.0134 21.2777 18.4222 21.2777H18.5631C20.9719 21.2777 22.9245 19.3625 22.9245 17.0001C22.9245 14.6377 20.9719 12.7226 18.5631 12.7226H18.4222C16.0134 12.7226 14.0608 14.6377 14.0608 17.0001ZM7.43398 23.3614C7.42464 23.3614 7.41536 23.3613 7.40609 23.3613C5.01015 23.376 3.07254 25.2854 3.07254 27.6387C3.07254 29.9925 5.05129 31.9163 7.46892 31.9163C9.92551 31.9163 11.9362 29.9616 11.9362 27.5697V23.3614H7.43398ZM7.43398 2.08368C5.0252 2.08368 3.07254 3.9988 3.07254 6.36121C3.07254 8.72366 5.0252 10.6387 7.43398 10.6387H11.9362V2.08368H7.43398ZM14.0608 10.6387H18.5631C20.9719 10.6387 22.9245 8.72366 22.9245 6.36121C22.9245 3.9988 20.9719 2.08368 18.5631 2.08368H14.0608V10.6387Z" fill="white"/>
</g>
<defs>
<clipPath id="clip0_8_152">
<rect width="26" height="34" fill="white"/>
</clipPath>
</defs>
</svg>
