<svg width="409" height="209" viewBox="0 0 409 209" fill="none" xmlns="http://www.w3.org/2000/svg">
<path d="M77.6174 1.98438C74.233 1.98438 71.4233 3.13655 69.2203 5.4089C66.9853 7.68125 65.8998 10.5297 65.8998 13.9222V64.1059C65.8998 69.0667 65.0377 73.2913 63.3455 76.7479C61.6533 80.2044 59.2268 82.8288 56.0978 84.5891C52.9688 86.3494 49.1375 87.2455 44.5717 87.2455C37.9307 87.2455 32.7264 85.5172 29.0227 82.0607C25.319 78.6042 23.4353 72.6192 23.4353 64.1379V13.9542C23.4672 10.5617 22.3497 7.71326 20.1467 5.4089C17.9117 3.13655 15.134 1.98438 11.7496 1.98438C8.36518 1.98438 5.5555 3.13655 3.35246 5.4089C1.11749 7.71326 0 10.5617 0 13.9542V71.179C0 78.5081 1.43677 85.0051 4.3103 90.67C7.18384 96.3669 11.1749 100.784 16.3472 103.984C21.4877 107.185 27.5221 108.785 34.4186 108.785C40.2934 108.785 45.4977 108.081 50.0634 106.64C54.6291 105.2 58.5563 103.088 61.8768 100.271C63.4094 98.9913 64.7823 97.5191 66.0913 95.9188V97.9992C66.0913 104.656 65.0696 109.905 63.0582 113.778C61.0467 117.618 58.0454 120.371 54.0544 122.003C50.0634 123.635 45.0826 124.435 39.112 124.435C34.674 124.435 30.7788 123.763 27.3944 122.387C23.9781 121.043 21.2322 120.019 19.1569 119.378C16.2834 118.322 13.5375 118.482 10.9514 119.859C8.33325 121.235 6.44949 123.795 5.26815 127.604C4.34223 130.484 4.66151 133.205 6.16214 135.733C7.66276 138.293 10.3767 140.406 14.2719 142.102C17.2731 143.414 21.1045 144.374 25.798 145.046C30.4914 145.686 34.9294 146.039 39.0801 146.039C48.467 146.039 56.9279 144.47 64.4949 141.334C72.0619 138.197 78.0963 133.077 82.5663 125.939C87.0681 118.802 89.3031 109.233 89.3031 97.231V13.9542C89.3031 10.5617 88.1856 7.71326 85.9826 5.44091C83.8115 3.13655 81.0018 1.98438 77.6174 1.98438Z" fill="white"/>
<path d="M193.74 15.4266C189.174 10.6579 183.938 6.91329 178 4.16086C172.061 1.40844 165.771 0.0322266 159.13 0.0322266C150.541 0.0322266 142.368 2.24057 134.705 6.68925C127.01 11.1379 120.784 17.5069 116.027 25.7962C111.27 34.0855 108.875 44.135 108.875 55.8808C108.875 65.9304 111.046 74.9557 115.42 82.925C119.795 90.8942 126.052 97.1992 134.194 101.84C142.336 106.481 151.946 108.785 163.025 108.785C169.539 108.785 175.86 107.697 181.991 105.552C188.121 103.408 192.878 100.88 196.263 97.9993C199.902 95.1189 201.722 91.9184 201.722 88.3978C201.722 85.7734 200.764 83.5011 198.881 81.5488C196.997 79.5965 194.602 78.6043 191.761 78.6043C189.685 78.6043 187.45 79.1804 185.12 80.3646C183.683 81.1327 182.086 82.0928 180.33 83.213C178.574 84.3332 176.244 85.2613 173.402 86.0615C170.528 86.8296 166.697 87.2456 161.876 87.2456C156.672 87.2456 151.755 85.9654 147.125 83.4371C142.496 80.9087 138.728 77.1641 135.791 72.2673C134.098 69.4189 132.949 66.1544 132.215 62.5699H196.678C199.807 62.5699 202.552 61.5777 204.883 59.6254C207.214 57.6731 208.459 55.1127 208.587 51.9762C208.587 44.9031 207.246 38.2461 204.596 31.9731C201.914 25.7002 198.306 20.1953 193.74 15.4266ZM139.398 28.4526C141.889 25.9562 144.794 24.1959 148.211 23.1718C151.595 22.1156 155.235 21.6035 159.162 21.6035C163.185 21.6035 167.016 22.4997 170.592 24.26C174.168 26.0202 177.17 28.4206 179.596 31.3971C181.991 34.4055 183.332 37.798 183.587 41.5746V42.9508H132.374C132.694 41.3506 133.045 39.8143 133.524 38.4381C134.96 34.2775 136.908 30.917 139.398 28.4526Z" fill="white"/>
<path d="M293.356 3.36074C290.674 1.1524 287.386 0.0322266 283.49 0.0322266C280.234 0.0322266 276.977 0.416286 273.72 1.21641C270.464 1.98453 267.399 3.20071 264.525 4.83296C261.651 6.46522 259.065 8.48153 256.798 10.9139C255.138 12.6742 253.797 14.6585 252.584 16.7708V13.9544C252.584 10.5618 251.466 7.71341 249.263 5.44106C247.028 3.16871 244.251 2.01653 240.866 2.01653C237.482 2.01653 234.672 3.16871 232.469 5.44106C230.234 7.71341 229.149 10.5618 229.149 13.9544V94.8948C229.149 98.2873 230.266 101.136 232.469 103.408C234.672 105.68 237.482 106.833 240.866 106.833C244.251 106.833 247.06 105.68 249.263 103.408C251.466 101.136 252.584 98.2873 252.584 94.8948V48.4237C252.584 43.7189 253.19 39.6223 254.436 36.1658C255.681 32.7093 257.309 29.7968 259.321 27.4604C261.332 25.1241 263.567 23.3638 265.962 22.2756C268.356 21.1555 270.751 20.6114 273.114 20.6114C275.732 20.6114 278.031 21.0595 280.042 21.9876C282.054 22.9157 284.32 23.3638 286.779 23.3638C289.397 23.3638 291.792 22.4037 294.027 20.5154C296.262 18.6271 297.347 15.5226 297.347 11.2019C297.347 8.19348 296.006 5.60108 293.356 3.36074Z" fill="white"/>
<path d="M405.679 3.36076C403.444 1.15242 400.635 0.0322491 397.25 0.0322491C393.866 0.0322491 391.056 1.18443 388.853 3.45678C386.65 5.72913 385.533 8.57756 385.533 11.9701V12.2581C384.383 11.17 383.138 10.1138 381.733 9.02563C378.285 6.40123 374.198 4.2569 369.505 2.56064C364.811 0.864377 359.671 0.000244141 354.052 0.000244141C345.303 0.000244141 337.353 2.3366 330.201 6.94531C323.017 11.586 317.334 17.987 313.088 26.1483C308.841 34.3095 306.734 43.751 306.734 54.4726C306.734 65.0663 308.841 74.4437 313.088 82.6049C317.334 90.7662 323.081 97.1672 330.393 101.808C337.704 106.449 345.846 108.753 354.818 108.753C359.767 108.753 364.364 107.953 368.611 106.289C372.857 104.656 376.529 102.672 379.658 100.304C381.989 98.5434 383.936 96.7831 385.533 95.0229C385.565 98.3194 386.682 101.104 388.821 103.344C391.024 105.616 393.834 106.769 397.218 106.769C400.603 106.769 403.413 105.616 405.616 103.344C407.819 101.072 408.936 98.2234 408.936 94.8308V12.0021C409 8.44954 407.882 5.60111 405.679 3.36076ZM382.883 71.1792C380.456 76.14 377.104 80.0766 372.825 82.925C368.515 85.8054 363.502 87.2457 357.787 87.2457C352.2 87.2457 347.219 85.8054 342.941 82.925C338.63 80.0446 335.278 76.14 332.883 71.1792C330.457 66.2184 329.275 60.6496 329.275 54.5046C329.275 48.2317 330.489 42.6308 332.883 37.638C335.31 32.6773 338.662 28.7407 342.941 25.8922C347.251 23.0118 352.2 21.5716 357.787 21.5716C363.534 21.5716 368.547 23.0118 372.825 25.8922C377.136 28.7727 380.488 32.6773 382.883 37.638C385.309 42.5988 386.491 48.2317 386.491 54.5046C386.491 60.6496 385.309 66.2184 382.883 71.1792Z" fill="white"/>
<path d="M217.718 130.132C213.504 127.316 208.14 125.908 201.658 125.908C197.54 125.908 193.293 126.74 188.919 128.436C184.545 130.132 180.586 132.373 177.074 135.189C173.881 137.782 171.582 140.662 170.113 143.862C168.166 138.134 165.069 133.749 160.663 130.868C155.618 127.572 150.094 125.908 144.028 125.908C139.813 125.908 135.727 126.772 131.768 128.5C127.808 130.228 124.296 132.533 121.231 135.413C119.188 137.301 117.464 139.382 115.963 141.59V130.132C115.963 129.268 115.676 128.5 115.069 127.86C114.462 127.22 113.696 126.868 112.706 126.868C111.844 126.868 111.078 127.188 110.44 127.86C109.801 128.5 109.482 129.268 109.482 130.132V204.768C109.482 205.632 109.769 206.4 110.376 207.04C110.982 207.68 111.749 208 112.738 208C113.6 208 114.367 207.68 115.005 207.04C115.644 206.4 115.995 205.632 115.995 204.768V157.305C115.995 152.632 117.4 148.407 120.21 144.631C123.019 140.822 126.563 137.814 130.842 135.509C135.12 133.237 139.526 132.085 144.06 132.085C149.264 132.085 153.415 133.237 156.544 135.509C159.673 137.782 161.972 140.822 163.44 144.631C164.909 148.439 165.643 152.664 165.643 157.305V204.8C165.643 205.664 165.931 206.432 166.537 207.072C167.144 207.712 167.91 208.032 168.9 208.032C169.858 208.032 170.656 207.712 171.263 207.072C171.869 206.432 172.157 205.664 172.157 204.8V158.105C172.157 153.336 173.593 148.983 176.467 145.015C179.341 141.046 182.98 137.91 187.418 135.573C191.856 133.237 196.39 132.085 201.052 132.085C206.352 132.085 210.662 133.237 213.951 135.573C217.239 137.91 219.666 141.046 221.262 145.015C222.827 148.983 223.625 153.336 223.625 158.105V204.768C223.625 205.632 223.912 206.4 224.519 207.04C225.126 207.68 225.892 208 226.882 208C227.839 208 228.638 207.68 229.244 207.04C229.851 206.4 230.138 205.632 230.138 204.768V157.465C230.138 151.512 229.148 146.167 227.137 141.43C225.03 136.725 221.933 132.949 217.718 130.132Z" fill="white"/>
<path d="M310.438 128.34C306.159 125.62 300.636 124.275 293.803 124.275C289.812 124.275 285.789 125.076 281.702 126.644C277.647 128.212 273.944 130.388 270.591 133.141C267.718 135.509 265.355 138.166 263.439 141.11V130.132C263.439 129.268 263.152 128.5 262.545 127.86C261.939 127.22 261.173 126.868 260.183 126.868C259.321 126.868 258.554 127.188 257.916 127.86C257.277 128.5 256.958 129.268 256.958 130.132V204.768C256.958 205.632 257.245 206.4 257.852 207.04C258.459 207.68 259.225 208 260.215 208C261.077 208 261.843 207.68 262.482 207.04C263.12 206.4 263.471 205.632 263.471 204.768V155.672C263.471 151 264.94 146.775 267.941 142.998C270.911 139.19 274.678 136.181 279.212 133.877C283.746 131.573 288.407 130.452 293.165 130.452C298.688 130.452 303.158 131.605 306.542 133.877C309.959 136.149 312.449 139.19 314.014 142.998C315.578 146.807 316.376 151.032 316.376 155.672V204.8C316.376 205.664 316.664 206.432 317.27 207.072C317.877 207.712 318.643 208.032 319.633 208.032C320.495 208.032 321.261 207.712 321.9 207.072C322.538 206.432 322.858 205.664 322.858 204.8V155.032C322.858 149.271 321.868 144.086 319.857 139.414C317.845 134.741 314.716 131.06 310.438 128.34Z" fill="white"/>
<path d="M404.53 125.268C403.923 124.627 403.189 124.307 402.327 124.307H352.679C351.817 124.307 351.05 124.595 350.412 125.204C349.773 125.812 349.454 126.548 349.454 127.412C349.454 128.18 349.773 128.884 350.412 129.524C351.05 130.164 351.817 130.516 352.679 130.516H396.548L345.239 202.719C345.016 203.039 344.824 203.36 344.665 203.68C344.505 204 344.409 204.384 344.409 204.832C344.409 205.376 344.697 206.048 345.303 206.848C345.91 207.648 346.74 208.064 347.825 208.064H400.73C401.593 208.064 402.359 207.776 402.997 207.168C403.636 206.56 403.955 205.824 403.955 204.96C403.955 204.192 403.636 203.488 402.997 202.847C402.359 202.207 401.593 201.887 400.73 201.887H353.445L404.785 129.844C405.009 129.524 405.2 129.172 405.36 128.788C405.52 128.404 405.615 127.988 405.615 127.572C405.488 126.676 405.137 125.908 404.53 125.268Z" fill="white"/>
</svg>
